<?xml version="1.0" encoding="utf-8"?>
<svg viewBox="0 0 78 77" xmlns="http://www.w3.org/2000/svg" xmlns:xlink="http://www.w3.org/1999/xlink">
    <style>:root>svg{display:none}:root>svg:target{display:block}</style>
    <svg id="header-arrow" width="10" height="6" viewBox="0 0 10 6" fill="none" xmlns="http://www.w3.org/2000/svg">
        <path d="M1 1L5 5L9 1"/>
    </svg>

    <svg id="user" width="24" height="24" viewBox="0 0 24 24" xmlns="http://www.w3.org/2000/svg">
        <path d="M12 3C12.7417 3 13.4667 3.21993 14.0834 3.63199C14.7001 4.04404 15.1807 4.62971 15.4646 5.31494C15.7484 6.00016 15.8226 6.75416 15.6779 7.48159C15.5333 8.20902 15.1761 8.8772 14.6517 9.40165C14.1272 9.9261 13.459 10.2833 12.7316 10.4279C12.0042 10.5726 11.2502 10.4984 10.5649 10.2145C9.87972 9.93072 9.29405 9.45007 8.88199 8.83339C8.46994 8.2167 8.25 7.49168 8.25 6.75C8.25 5.75544 8.64509 4.80161 9.34835 4.09835C10.0516 3.39509 11.0054 3 12 3ZM12 1.5C10.9617 1.5 9.94662 1.80791 9.08326 2.38478C8.2199 2.96166 7.54699 3.7816 7.14963 4.74091C6.75227 5.70022 6.64831 6.75582 6.85088 7.77422C7.05345 8.79262 7.55347 9.72808 8.28769 10.4623C9.02192 11.1965 9.95738 11.6966 10.9758 11.8991C11.9942 12.1017 13.0498 11.9977 14.0091 11.6004C14.9684 11.203 15.7883 10.5301 16.3652 9.66674C16.9421 8.80339 17.25 7.78835 17.25 6.75C17.25 5.35761 16.6969 4.02226 15.7123 3.03769C14.7277 2.05312 13.3924 1.5 12 1.5Z" stroke-width="0.5"/>
        <path d="M19.5 22.5H18V18.75C18 18.2575 17.903 17.7699 17.7145 17.3149C17.5261 16.86 17.2499 16.4466 16.9017 16.0983C16.5534 15.7501 16.14 15.4739 15.6851 15.2855C15.2301 15.097 14.7425 15 14.25 15H9.75C8.75544 15 7.80161 15.3951 7.09835 16.0983C6.39509 16.8016 6 17.7554 6 18.75V22.5H4.5V18.75C4.5 17.3576 5.05312 16.0223 6.03769 15.0377C7.02226 14.0531 8.35761 13.5 9.75 13.5H14.25C15.6424 13.5 16.9777 14.0531 17.9623 15.0377C18.9469 16.0223 19.5 17.3576 19.5 18.75V22.5Z" stroke-width="0.5"/>
    </svg>

    <svg id="search" width="24" height="24" viewBox="0 0 24 24" xmlns="http://www.w3.org/2000/svg">
        <path d="M21.7492 20.6896L16.0851 15.0255C17.4462 13.3915 18.1249 11.2958 17.98 9.17412C17.8352 7.05248 16.878 5.06836 15.3075 3.63451C13.737 2.20065 11.6742 1.42746 9.54821 1.47577C7.42218 1.52408 5.39663 2.39018 3.89292 3.89389C2.3892 5.39761 1.5231 7.42316 1.47479 9.54918C1.42648 11.6752 2.19967 13.738 3.63353 15.3085C5.06738 16.8789 7.05151 17.8362 9.17314 17.981C11.2948 18.1258 13.3906 17.4471 15.0246 16.0861L20.6886 21.7502L21.7492 20.6896ZM2.9992 9.75018C2.9992 8.41515 3.39508 7.11011 4.13678 6.00008C4.87848 4.89005 5.93269 4.02488 7.16609 3.51399C8.39949 3.0031 9.75669 2.86943 11.0661 3.12988C12.3754 3.39033 13.5782 4.0332 14.5222 4.97721C15.4662 5.92121 16.1091 7.12395 16.3695 8.43332C16.63 9.74269 16.4963 11.0999 15.9854 12.3333C15.4745 13.5667 14.6093 14.6209 13.4993 15.3626C12.3893 16.1043 11.0842 16.5002 9.7492 16.5002C7.9596 16.4982 6.24386 15.7864 4.97842 14.521C3.71298 13.2555 3.00119 11.5398 2.9992 9.75018Z" stroke-width="0.5"/>
    </svg>

    <svg id="cart" width="24" height="24" viewBox="0 0 24 24" xmlns="http://www.w3.org/2000/svg">
        <g clip-path="url(#clip0_22_188)">
            <path d="M7.5 22.5C8.32843 22.5 9 21.8284 9 21C9 20.1716 8.32843 19.5 7.5 19.5C6.67157 19.5 6 20.1716 6 21C6 21.8284 6.67157 22.5 7.5 22.5Z" stroke-width="0.5"/>
            <path d="M18 22.5C18.8284 22.5 19.5 21.8284 19.5 21C19.5 20.1716 18.8284 19.5 18 19.5C17.1716 19.5 16.5 20.1716 16.5 21C16.5 21.8284 17.1716 22.5 18 22.5Z" stroke-width="0.5"/>
            <path d="M21 5.25015H4.365L3.75 2.10015C3.71494 1.9282 3.62068 1.77398 3.48364 1.66435C3.3466 1.55472 3.17546 1.49661 3 1.50015H0V3.00015H2.385L5.25 17.4002C5.28506 17.5721 5.37932 17.7263 5.51636 17.836C5.6534 17.9456 5.82454 18.0037 6 18.0002H19.5V16.5002H6.615L6 13.5002H19.5C19.6734 13.5044 19.8429 13.4484 19.9796 13.3418C20.1163 13.2351 20.2119 13.0843 20.25 12.9152L21.75 6.16515C21.7751 6.05387 21.7745 5.93832 21.7483 5.8273C21.722 5.71628 21.6708 5.61271 21.5985 5.52448C21.5261 5.43625 21.4347 5.36568 21.3309 5.31814C21.2272 5.2706 21.114 5.24735 21 5.25015ZM18.9 12.0002H5.715L4.665 6.75015H20.0625L18.9 12.0002Z" stroke-width="0.5"/>
        </g>
        <defs>
            <clipPath id="clip0_22_188">
                <rect width="24" height="24" fill="white"/>
            </clipPath>
        </defs>
    </svg>

<!--    <svg id="youtube" width="18" height="13" viewBox="0 0 18 13" xmlns="http://www.w3.org/2000/svg">-->
<!--        <path d="M16.924 2.84451C16.7248 2.11027 16.1412 1.53147 15.401 1.33376C14.0488 0.966797 8.63981 0.966797 8.63981 0.966797C8.63981 0.966797 3.23104 0.966797 1.87882 1.31985C1.15288 1.51735 0.554978 2.11037 0.355852 2.84451C0 4.18558 0 6.9668 0 6.9668C0 6.9668 0 9.76203 0.355852 11.0891C0.555189 11.8232 1.13864 12.402 1.87893 12.5997C3.24528 12.9668 8.64002 12.9668 8.64002 12.9668C8.64002 12.9668 14.0488 12.9668 15.401 12.6137C16.1413 12.4161 16.7248 11.8373 16.9242 11.1032C17.2799 9.76203 17.2799 6.98092 17.2799 6.98092C17.2799 6.98092 17.2942 4.18558 16.924 2.84451ZM6.91771 9.53618V4.39742L11.4155 6.9668L6.91771 9.53618Z"/>-->
<!--    </svg>-->
<!--    -->
<!--    <svg id="facebook" width="6" height="13" viewBox="0 0 6 13" xmlns="http://www.w3.org/2000/svg">-->
<!--        <path fill-rule="evenodd" clip-rule="evenodd" d="M1.24342 7.01927V12.8269C1.24342 12.8968 1.31447 12.9668 1.38553 12.9668H3.58816C3.65921 12.9668 3.73026 12.8968 3.73026 12.8269V6.91432H5.32895C5.4 6.91432 5.47105 6.84435 5.47105 6.77438L5.61316 4.99012C5.61316 4.88516 5.54211 4.81519 5.47105 4.81519H3.73026V3.5907C3.73026 3.31082 3.97895 3.06592 4.26316 3.06592H5.47105C5.54211 3.06592 5.61316 2.99595 5.61316 2.92598V1.10674C5.68421 1.03677 5.61316 0.966797 5.50658 0.966797H3.44605C2.23816 0.966797 1.24342 1.94639 1.24342 3.13589V4.85018H0.142105C0.0710526 4.85018 0 4.92015 0 4.99012V6.77438C0 6.84435 0.0710526 6.91432 0.142105 6.91432H1.24342V7.01927Z"/>-->
<!--    </svg>-->
<!--    -->
<!--    <svg id="instagram" width="12" height="13" viewBox="0 0 12 13" xmlns="http://www.w3.org/2000/svg">-->
<!--        <path d="M9.15084 3.17909C8.7486 3.17909 8.44693 3.48076 8.44693 3.883C8.44693 4.28523 8.7486 4.58691 9.15084 4.58691C9.55307 4.58691 9.85475 4.28523 9.85475 3.883C9.85475 3.48076 9.55307 3.17909 9.15084 3.17909ZM6.03352 4.08412C4.39106 4.08412 3.0838 5.4249 3.0838 7.03384C3.0838 8.64278 4.42458 9.98356 6.03352 9.98356C7.64246 9.98356 8.98324 8.64278 8.98324 7.03384C8.98324 5.4249 7.67598 4.08412 6.03352 4.08412ZM6.03352 8.94445C4.99441 8.94445 4.12291 8.10646 4.12291 7.03384C4.12291 5.99473 4.96089 5.12322 6.03352 5.12322C7.07263 5.12322 7.94414 5.96121 7.94414 7.03384C7.91062 8.10646 7.07263 8.94445 6.03352 8.94445ZM12 4.58691C12 2.57574 10.3911 0.966797 8.37989 0.966797H3.62011C1.60894 0.966797 0 2.57574 0 4.58691V9.34669C0 11.3579 1.60894 12.9668 3.62011 12.9668H8.37989C10.3911 12.9668 12 11.3579 12 9.34669V4.58691ZM10.8603 9.34669C10.8603 10.721 9.75419 11.8271 8.37989 11.8271H3.62011C2.24581 11.8271 1.13966 10.721 1.13966 9.34669V4.58691C1.13966 3.21261 2.24581 2.10646 3.62011 2.10646H8.37989C9.75419 2.10646 10.8603 3.21261 10.8603 4.58691V9.34669Z"/>-->
<!--    </svg>-->

    <svg id="play" width="12" height="14" viewBox="0 0 12 14" xmlns="http://www.w3.org/2000/svg">
        <path d="M11.1113 6.99978L0.444662 13.1582L0.444662 0.84138L11.1113 6.99978Z"/>
    </svg>

    <svg id="prev-arrow" width="26" height="20" viewBox="0 0 26 20" fill="none" xmlns="http://www.w3.org/2000/svg">
        <path d="M26 9.72656L3.09091 9.72656" stroke-width="2"/>
        <path d="M10.7273 18.4541L2 9.72683L10.7273 0.999555" stroke-width="2"/>
    </svg>

    <svg id="next-arrow" width="26" height="20" viewBox="0 0 26 20" fill="none" xmlns="http://www.w3.org/2000/svg">
        <path d="M0 9.72754H22.9091" stroke-width="2"/>
        <path d="M15.2727 1L24 9.72727L15.2727 18.4545" stroke-width="2"/>
    </svg>

    <svg id="close" width="12" height="12" viewBox="0 0 12 12" xmlns="http://www.w3.org/2000/svg">
        <path d="M12 1.05L10.95 0L6 4.95L1.05 0L0 1.05L4.95 6L0 10.95L1.05 12L6 7.05L10.95 12L12 10.95L7.05 6L12 1.05Z"/>
    </svg>

    <svg id="social-linked-in" width="32" height="32" viewBox="0 0 32 32" xmlns="http://www.w3.org/2000/svg">
        <path d="M29.6313 0H2.3625C1.05625 0 0 1.03125 0 2.30625V29.6875C0 30.9625 1.05625 32 2.3625 32H29.6313C30.9375 32 32 30.9625 32 29.6938V2.30625C32 1.03125 30.9375 0 29.6313 0ZM9.49375 27.2687H4.74375V11.9937H9.49375V27.2687ZM7.11875 9.9125C5.59375 9.9125 4.3625 8.68125 4.3625 7.1625C4.3625 5.64375 5.59375 4.4125 7.11875 4.4125C8.6375 4.4125 9.86875 5.64375 9.86875 7.1625C9.86875 8.675 8.6375 9.9125 7.11875 9.9125ZM27.2687 27.2687H22.525V19.8438C22.525 18.075 22.4937 15.7937 20.0562 15.7937C17.5875 15.7937 17.2125 17.725 17.2125 19.7188V27.2687H12.475V11.9937H17.025V14.0813H17.0875C17.7188 12.8813 19.2688 11.6125 21.575 11.6125C26.3813 11.6125 27.2687 14.775 27.2687 18.8875V27.2687Z"/>
    </svg>

    <svg id="social-twitter" width="32" height="26" viewBox="0 0 32 26" xmlns="http://www.w3.org/2000/svg">
        <path d="M10.0669 26C22.1394 26 28.7444 15.9957 28.7444 7.32254C28.7444 7.04129 28.7381 6.75379 28.7256 6.47254C30.0105 5.54334 31.1193 4.3924 32 3.07379C30.8034 3.60619 29.5329 3.9539 28.2319 4.10504C29.6017 3.28394 30.6274 1.99402 31.1187 0.474417C29.8301 1.23814 28.4208 1.77688 26.9513 2.06754C25.9611 1.01548 24.652 0.318883 23.2262 0.0854624C21.8005 -0.147958 20.3376 0.0947949 19.0637 0.77619C17.7897 1.45758 16.7757 2.53967 16.1785 3.85514C15.5812 5.17062 15.4339 6.64621 15.7594 8.05379C13.15 7.92285 10.5972 7.245 8.26664 6.06419C5.93604 4.88338 3.87959 3.22598 2.23062 1.19942C1.39253 2.64439 1.13608 4.35425 1.51337 5.98152C1.89067 7.60878 2.87342 9.03132 4.26188 9.96004C3.2195 9.92695 2.19997 9.6463 1.2875 9.14129V9.22254C1.28657 10.7389 1.8108 12.2088 2.77108 13.3824C3.73136 14.556 5.06843 15.3608 6.555 15.66C5.58941 15.9242 4.57598 15.9627 3.59313 15.7725C4.01261 17.0766 4.82876 18.2172 5.92769 19.0352C7.02662 19.8531 8.35349 20.3075 9.72313 20.335C7.3979 22.1615 4.52557 23.1522 1.56875 23.1475C1.04438 23.1467 0.520532 23.1146 0 23.0513C3.00381 24.9784 6.49804 26.0019 10.0669 26Z"/>
    </svg>

    <svg id="social-facebook" width="32" height="32" viewBox="0 0 32 32" xmlns="http://www.w3.org/2000/svg">
        <path d="M32 16C32 7.16344 24.8366 0 16 0C7.16344 0 0 7.16344 0 16C0 23.9859 5.85094 30.6053 13.5 31.8056V20.625H9.4375V16H13.5V12.475C13.5 8.465 15.8888 6.25 19.5434 6.25C21.2934 6.25 23.125 6.5625 23.125 6.5625V10.5H21.1075C19.12 10.5 18.5 11.7334 18.5 13V16H22.9375L22.2281 20.625H18.5V31.8056C26.1491 30.6053 32 23.9859 32 16Z"/>
    </svg>

    <svg id="social-instagram" width="32" height="32" viewBox="0 0 32 32" xmlns="http://www.w3.org/2000/svg">
        <path d="M16 2.88125C20.275 2.88125 20.7813 2.9 22.4625 2.975C24.025 3.04375 24.8688 3.30625 25.4313 3.525C26.175 3.8125 26.7125 4.1625 27.2688 4.71875C27.8313 5.28125 28.175 5.8125 28.4625 6.55625C28.6813 7.11875 28.9438 7.96875 29.0125 9.525C29.0875 11.2125 29.1063 11.7188 29.1063 15.9875C29.1063 20.2625 29.0875 20.7688 29.0125 22.45C28.9438 24.0125 28.6813 24.8563 28.4625 25.4188C28.175 26.1625 27.825 26.7 27.2688 27.2563C26.7063 27.8188 26.175 28.1625 25.4313 28.45C24.8688 28.6688 24.0188 28.9313 22.4625 29C20.775 29.075 20.2688 29.0938 16 29.0938C11.725 29.0938 11.2188 29.075 9.5375 29C7.975 28.9313 7.13125 28.6688 6.56875 28.45C5.825 28.1625 5.2875 27.8125 4.73125 27.2563C4.16875 26.6938 3.825 26.1625 3.5375 25.4188C3.31875 24.8563 3.05625 24.0063 2.9875 22.45C2.9125 20.7625 2.89375 20.2563 2.89375 15.9875C2.89375 11.7125 2.9125 11.2063 2.9875 9.525C3.05625 7.9625 3.31875 7.11875 3.5375 6.55625C3.825 5.8125 4.175 5.275 4.73125 4.71875C5.29375 4.15625 5.825 3.8125 6.56875 3.525C7.13125 3.30625 7.98125 3.04375 9.5375 2.975C11.2188 2.9 11.725 2.88125 16 2.88125ZM16 0C11.6563 0 11.1125 0.01875 9.40625 0.09375C7.70625 0.16875 6.5375 0.44375 5.525 0.8375C4.46875 1.25 3.575 1.79375 2.6875 2.6875C1.79375 3.575 1.25 4.46875 0.8375 5.51875C0.44375 6.5375 0.16875 7.7 0.09375 9.4C0.01875 11.1125 0 11.6562 0 16C0 20.3438 0.01875 20.8875 0.09375 22.5938C0.16875 24.2938 0.44375 25.4625 0.8375 26.475C1.25 27.5313 1.79375 28.425 2.6875 29.3125C3.575 30.2 4.46875 30.75 5.51875 31.1562C6.5375 31.55 7.7 31.825 9.4 31.9C11.1063 31.975 11.65 31.9937 15.9938 31.9937C20.3375 31.9937 20.8813 31.975 22.5875 31.9C24.2875 31.825 25.4563 31.55 26.4688 31.1562C27.5188 30.75 28.4125 30.2 29.3 29.3125C30.1875 28.425 30.7375 27.5313 31.1438 26.4813C31.5375 25.4625 31.8125 24.3 31.8875 22.6C31.9625 20.8938 31.9813 20.35 31.9813 16.0063C31.9813 11.6625 31.9625 11.1188 31.8875 9.4125C31.8125 7.7125 31.5375 6.54375 31.1438 5.53125C30.75 4.46875 30.2063 3.575 29.3125 2.6875C28.425 1.8 27.5313 1.25 26.4813 0.84375C25.4625 0.45 24.3 0.175 22.6 0.1C20.8875 0.01875 20.3438 0 16 0Z"/>
        <path d="M16 7.78125C11.4625 7.78125 7.78125 11.4625 7.78125 16C7.78125 20.5375 11.4625 24.2188 16 24.2188C20.5375 24.2188 24.2188 20.5375 24.2188 16C24.2188 11.4625 20.5375 7.78125 16 7.78125ZM16 21.3312C13.0563 21.3312 10.6687 18.9438 10.6687 16C10.6687 13.0563 13.0563 10.6687 16 10.6687C18.9438 10.6687 21.3312 13.0563 21.3312 16C21.3312 18.9438 18.9438 21.3312 16 21.3312Z"/>
        <path d="M26.4625 7.4562C26.4625 8.5187 25.6 9.37495 24.5438 9.37495C23.4813 9.37495 22.625 8.51245 22.625 7.4562C22.625 6.3937 23.4875 5.53745 24.5438 5.53745C25.6 5.53745 26.4625 6.39995 26.4625 7.4562Z"/>
    </svg>

    <svg id="social-youtube" width="48" height="48" viewBox="0 0 48 48" fill="none" xmlns="http://www.w3.org/2000/svg">
        <path d="M0 24C0 10.7452 10.7452 0 24 0C37.2548 0 48 10.7452 48 24C48 37.2548 37.2548 48 24 48C10.7452 48 0 37.2548 0 24Z" fill="#FF0000"/>
        <path d="M36.2652 18.0732C35.9708 16.9422 35.1033 16.0515 34.0018 15.7493C32.0056 15.2 24.0002 15.2 24.0002 15.2C24.0002 15.2 15.9948 15.2 13.9984 15.7493C12.8969 16.0515 12.0294 16.9422 11.735 18.0732C11.2002 20.123 11.2002 24.4 11.2002 24.4C11.2002 24.4 11.2002 28.6768 11.735 30.7267C12.0294 31.8577 12.8969 32.7484 13.9984 33.0508C15.9948 33.6 24.0002 33.6 24.0002 33.6C24.0002 33.6 32.0056 33.6 34.0018 33.0508C35.1033 32.7484 35.9708 31.8577 36.2652 30.7267C36.8002 28.6768 36.8002 24.4 36.8002 24.4C36.8002 24.4 36.8002 20.123 36.2652 18.0732Z" fill="white"/>
        <path d="M21.6001 28.8V20.8L28.0001 24.8002L21.6001 28.8Z" fill="#FF0000"/>
    </svg>

    <svg id="download" width="32" height="32" viewBox="0 0 32 32" xmlns="http://www.w3.org/2000/svg">
        <path d="M26 24V28H6V24H4V28C4 28.5304 4.21071 29.0391 4.58579 29.4142C4.96086 29.7893 5.46957 30 6 30H26C26.5304 30 27.0391 29.7893 27.4142 29.4142C27.7893 29.0391 28 28.5304 28 28V24H26Z"/>
        <path d="M26 14L24.59 12.59L17 20.17V2H15V20.17L7.41 12.59L6 14L16 24L26 14Z"/>
    </svg>

    <svg id="pdf" width="32" height="32" viewBox="0 0 32 32" xmlns="http://www.w3.org/2000/svg">
        <path d="M30 18V16H24V26H26V22H29V20H26V18H30Z"/>
        <path d="M19 26H15V16H19C19.7954 16.0009 20.5579 16.3172 21.1204 16.8796C21.6828 17.4421 21.9991 18.2046 22 19V23C21.9991 23.7954 21.6828 24.5579 21.1204 25.1204C20.5579 25.6828 19.7954 25.9991 19 26ZM17 24H19C19.2651 23.9997 19.5193 23.8943 19.7068 23.7068C19.8943 23.5193 19.9997 23.2651 20 23V19C19.9997 18.7349 19.8943 18.4807 19.7068 18.2932C19.5193 18.1057 19.2651 18.0003 19 18H17V24Z"/>
        <path d="M11 16H6V26H8V23H11C11.5302 22.9993 12.0385 22.7883 12.4134 22.4134C12.7883 22.0385 12.9993 21.5302 13 21V18C12.9994 17.4698 12.7885 16.9614 12.4135 16.5865C12.0386 16.2115 11.5302 16.0006 11 16ZM8 21V18H11L11.001 21H8Z"/>
        <path d="M22 14.0001V10.0001C22.0036 9.86867 21.9786 9.73802 21.9268 9.61717C21.875 9.49633 21.7976 9.38815 21.7 9.3001L14.7 2.3001C14.612 2.20243 14.5038 2.12502 14.3829 2.07323C14.2621 2.02143 14.1314 1.99648 14 2.0001H4C3.47005 2.00166 2.96224 2.21287 2.58751 2.58761C2.21277 2.96234 2.00156 3.47015 2 4.0001V28.0001C2 28.5305 2.21071 29.0392 2.58579 29.4143C2.96086 29.7894 3.46957 30.0001 4 30.0001H20V28.0001H4V4.0001H12V10.0001C12.0016 10.5301 12.2128 11.0379 12.5875 11.4126C12.9622 11.7873 13.47 11.9985 14 12.0001H20V14.0001H22ZM14 10.0001V4.4001L19.6 10.0001H14Z"/>
    </svg>

    <svg id="check" width="15" height="11" viewBox="0 0 15 11" fill="none" xmlns="http://www.w3.org/2000/svg">
        <path d="M1 4.45455L5.54545 9L13.5455 1" stroke-width="2"/>
    </svg>

    <svg id="multicolor" width="20" height="20" viewBox="0 0 20 20" fill="none" xmlns="http://www.w3.org/2000/svg">
        <mask id="mask0_309_8837" style="mask-type:alpha" maskUnits="userSpaceOnUse" x="0" y="0" width="20" height="20">
            <circle cx="10" cy="10" r="9.5" fill="white" stroke="#E7E7E7"/>
        </mask>
        <g mask="url(#mask0_309_8837)">
            <path d="M10 0H22V10H10V0Z" fill="#18C452"/>
            <path d="M-2 0H10V10H-2V0Z" fill="#FF0000"/>
            <path d="M10 10H22V20H10V10Z" fill="#FBF224"/>
            <path d="M-2 10H10V20H-2V10Z" fill="#3F74FA"/>
        </g>
    </svg>

    <svg id="star" width="13" height="12" viewBox="0 0 13 12" xmlns="http://www.w3.org/2000/svg">
        <path d="M6.5 0.0234375L7.95934 4.51483H12.6819L8.86126 7.29066L10.3206 11.782L6.5 9.00622L2.6794 11.782L4.13874 7.29066L0.318133 4.51483H5.04066L6.5 0.0234375Z"/>
    </svg>

    <svg id="star-big" width="64" height="60" viewBox="0 0 64 60" xmlns="http://www.w3.org/2000/svg">
        <path d="M32.1229 0L39.5042 22.7173L63.3906 22.7173L44.0661 36.7574L51.4474 59.4747L32.1229 45.4346L12.7984 59.4747L20.1797 36.7574L0.8552 22.7173L24.7416 22.7173L32.1229 0Z" />
    </svg>

    <svg id="history" width="24" height="24" viewBox="0 0 24 24" xmlns="http://www.w3.org/2000/svg">
        <path d="M15.4425 16.5L11.25 12.3075V5.25H12.75V11.685L16.5 15.4425L15.4425 16.5Z" />
        <path d="M12 1.5C10.6012 1.5002 9.21669 1.78108 7.92842 2.32602C6.64015 2.87096 5.47433 3.66887 4.5 4.6725V1.5H3V7.5H9V6H5.31C6.71702 4.43647 8.62724 3.41515 10.7089 3.1134C12.7905 2.81166 14.9121 3.24856 16.7052 4.34823C18.4983 5.4479 19.8495 7.14086 20.5243 9.1331C21.1991 11.1253 21.1547 13.291 20.399 15.2539C19.6433 17.2169 18.2239 18.8531 16.3873 19.8785C14.5507 20.9039 12.4131 21.2536 10.3455 20.8669C8.27793 20.4803 6.41111 19.3816 5.06925 17.7618C3.72739 16.142 2.99525 14.1034 3 12H1.5C1.5 14.0767 2.11581 16.1068 3.26957 17.8335C4.42332 19.5602 6.0632 20.906 7.98182 21.7007C9.90045 22.4955 12.0116 22.7034 14.0484 22.2982C16.0852 21.8931 17.9562 20.8931 19.4246 19.4246C20.8931 17.9562 21.8931 16.0852 22.2982 14.0484C22.7034 12.0116 22.4955 9.90045 21.7007 7.98182C20.906 6.0632 19.5602 4.42332 17.8335 3.26957C16.1068 2.11581 14.0767 1.5 12 1.5Z" />
    </svg>

    <svg id="accordion-arrow" width="17" height="10" viewBox="0 0 17 10" fill="none" xmlns="http://www.w3.org/2000/svg">
        <path d="M1 1L8.5 8.5L16 0.999997" stroke-width="2"/>
    </svg>

    <svg id="telegram" xmlns="http://www.w3.org/2000/svg"  viewBox="0 0 50 50">
        <path d="M46.137,6.552c-0.75-0.636-1.928-0.727-3.146-0.238l-0.002,0C41.708,6.828,6.728,21.832,5.304,22.445	c-0.259,0.09-2.521,0.934-2.288,2.814c0.208,1.695,2.026,2.397,2.248,2.478l8.893,3.045c0.59,1.964,2.765,9.21,3.246,10.758	c0.3,0.965,0.789,2.233,1.646,2.494c0.752,0.29,1.5,0.025,1.984-0.355l5.437-5.043l8.777,6.845l0.209,0.125	c0.596,0.264,1.167,0.396,1.712,0.396c0.421,0,0.825-0.079,1.211-0.237c1.315-0.54,1.841-1.793,1.896-1.935l6.556-34.077	C47.231,7.933,46.675,7.007,46.137,6.552z M22,32l-3,8l-3-10l23-17L22,32z"/>
    </svg>

    <svg id="viber" xmlns="http://www.w3.org/2000/svg"  viewBox="0 0 50 50">
        <path d="M 44.78125 13.15625 C 44 10.367188 42.453125 8.164063 40.1875 6.605469 C 37.328125 4.632813 34.039063 3.9375 31.199219 3.511719 C 27.269531 2.925781 23.710938 2.84375 20.316406 3.257813 C 17.136719 3.648438 14.742188 4.269531 12.558594 5.273438 C 8.277344 7.242188 5.707031 10.425781 4.921875 14.734375 C 4.539063 16.828125 4.28125 18.71875 4.132813 20.523438 C 3.789063 24.695313 4.101563 28.386719 5.085938 31.808594 C 6.046875 35.144531 7.722656 37.527344 10.210938 39.09375 C 10.84375 39.492188 11.65625 39.78125 12.441406 40.058594 C 12.886719 40.214844 13.320313 40.367188 13.675781 40.535156 C 14.003906 40.6875 14.003906 40.714844 14 40.988281 C 13.972656 43.359375 14 48.007813 14 48.007813 L 14.007813 49 L 15.789063 49 L 16.078125 48.71875 C 16.269531 48.539063 20.683594 44.273438 22.257813 42.554688 L 22.472656 42.316406 C 22.742188 42.003906 22.742188 42.003906 23.019531 42 C 25.144531 41.957031 27.316406 41.875 29.472656 41.757813 C 32.085938 41.617188 35.113281 41.363281 37.964844 40.175781 C 40.574219 39.085938 42.480469 37.355469 43.625 35.035156 C 44.820313 32.613281 45.527344 29.992188 45.792969 27.019531 C 46.261719 21.792969 45.929688 17.257813 44.78125 13.15625 Z M 35.382813 33.480469 C 34.726563 34.546875 33.75 35.289063 32.597656 35.769531 C 31.753906 36.121094 30.894531 36.046875 30.0625 35.695313 C 23.097656 32.746094 17.632813 28.101563 14.023438 21.421875 C 13.277344 20.046875 12.761719 18.546875 12.167969 17.09375 C 12.046875 16.796875 12.054688 16.445313 12 16.117188 C 12.050781 13.769531 13.851563 12.445313 15.671875 12.046875 C 16.367188 11.890625 16.984375 12.136719 17.5 12.632813 C 18.929688 13.992188 20.058594 15.574219 20.910156 17.347656 C 21.28125 18.125 21.113281 18.8125 20.480469 19.390625 C 20.347656 19.511719 20.210938 19.621094 20.066406 19.730469 C 18.621094 20.816406 18.410156 21.640625 19.179688 23.277344 C 20.492188 26.0625 22.671875 27.933594 25.488281 29.09375 C 26.230469 29.398438 26.929688 29.246094 27.496094 28.644531 C 27.574219 28.566406 27.660156 28.488281 27.714844 28.394531 C 28.824219 26.542969 30.4375 26.726563 31.925781 27.78125 C 32.902344 28.476563 33.851563 29.210938 34.816406 29.917969 C 36.289063 31 36.277344 32.015625 35.382813 33.480469 Z M 26.144531 15 C 25.816406 15 25.488281 15.027344 25.164063 15.082031 C 24.617188 15.171875 24.105469 14.804688 24.011719 14.257813 C 23.921875 13.714844 24.289063 13.199219 24.835938 13.109375 C 25.265625 13.035156 25.707031 13 26.144531 13 C 30.476563 13 34 16.523438 34 20.855469 C 34 21.296875 33.964844 21.738281 33.890625 22.164063 C 33.808594 22.652344 33.386719 23 32.90625 23 C 32.851563 23 32.796875 22.996094 32.738281 22.984375 C 32.195313 22.894531 31.828125 22.378906 31.917969 21.835938 C 31.972656 21.515625 32 21.1875 32 20.855469 C 32 17.628906 29.371094 15 26.144531 15 Z M 31 21 C 31 21.550781 30.550781 22 30 22 C 29.449219 22 29 21.550781 29 21 C 29 19.347656 27.652344 18 26 18 C 25.449219 18 25 17.550781 25 17 C 25 16.449219 25.449219 16 26 16 C 28.757813 16 31 18.242188 31 21 Z M 36.710938 23.222656 C 36.605469 23.6875 36.191406 24 35.734375 24 C 35.660156 24 35.585938 23.992188 35.511719 23.976563 C 34.972656 23.851563 34.636719 23.316406 34.757813 22.777344 C 34.902344 22.140625 34.976563 21.480469 34.976563 20.816406 C 34.976563 15.957031 31.019531 12 26.160156 12 C 25.496094 12 24.835938 12.074219 24.199219 12.21875 C 23.660156 12.34375 23.125 12.003906 23.003906 11.464844 C 22.878906 10.925781 23.21875 10.390625 23.757813 10.269531 C 24.539063 10.089844 25.347656 10 26.160156 10 C 32.125 10 36.976563 14.851563 36.976563 20.816406 C 36.976563 21.628906 36.886719 22.4375 36.710938 23.222656 Z"/>
    </svg>

    <svg id="whats-app" xmlns="http://www.w3.org/2000/svg" viewBox="0 0 50 50">
        <path d="M25,2C12.318,2,2,12.318,2,25c0,3.96,1.023,7.854,2.963,11.29L2.037,46.73c-0.096,0.343-0.003,0.711,0.245,0.966 C2.473,47.893,2.733,48,3,48c0.08,0,0.161-0.01,0.24-0.029l10.896-2.699C17.463,47.058,21.21,48,25,48c12.682,0,23-10.318,23-23 S37.682,2,25,2z M36.57,33.116c-0.492,1.362-2.852,2.605-3.986,2.772c-1.018,0.149-2.306,0.213-3.72-0.231 c-0.857-0.27-1.957-0.628-3.366-1.229c-5.923-2.526-9.791-8.415-10.087-8.804C15.116,25.235,13,22.463,13,19.594 s1.525-4.28,2.067-4.864c0.542-0.584,1.181-0.73,1.575-0.73s0.787,0.005,1.132,0.021c0.363,0.018,0.85-0.137,1.329,1.001 c0.492,1.168,1.673,4.037,1.819,4.33c0.148,0.292,0.246,0.633,0.05,1.022c-0.196,0.389-0.294,0.632-0.59,0.973 s-0.62,0.76-0.886,1.022c-0.296,0.291-0.603,0.606-0.259,1.19c0.344,0.584,1.529,2.493,3.285,4.039 c2.255,1.986,4.158,2.602,4.748,2.894c0.59,0.292,0.935,0.243,1.279-0.146c0.344-0.39,1.476-1.703,1.869-2.286 s0.787-0.487,1.329-0.292c0.542,0.194,3.445,1.604,4.035,1.896c0.59,0.292,0.984,0.438,1.132,0.681 C37.062,30.587,37.062,31.755,36.57,33.116z"/>
    </svg>

    <svg id="youtube" xmlns="http://www.w3.org/2000/svg"  viewBox="0 0 50 50">
        <path d="M44.9,14.5c-0.4-2.2-2.3-3.8-4.5-4.3C37.1,9.5,31,9,24.4,9c-6.6,0-12.8,0.5-16.1,1.2c-2.2,0.5-4.1,2-4.5,4.3C3.4,17,3,20.5,3,25s0.4,8,0.9,10.5c0.4,2.2,2.3,3.8,4.5,4.3c3.5,0.7,9.5,1.2,16.1,1.2s12.6-0.5,16.1-1.2c2.2-0.5,4.1-2,4.5-4.3c0.4-2.5,0.9-6.1,1-10.5C45.9,20.5,45.4,17,44.9,14.5z M19,32V18l12.2,7L19,32z"/>
    </svg>

    <svg id="facebook" xmlns="http://www.w3.org/2000/svg"  viewBox="0 0 50 50">
        <path d="M32,11h5c0.552,0,1-0.448,1-1V3.263c0-0.524-0.403-0.96-0.925-0.997C35.484,2.153,32.376,2,30.141,2C24,2,20,5.68,20,12.368V19h-7c-0.552,0-1,0.448-1,1v7c0,0.552,0.448,1,1,1h7v19c0,0.552,0.448,1,1,1h7c0.552,0,1-0.448,1-1V28h7.222c0.51,0,0.938-0.383,0.994-0.89l0.778-7C38.06,19.518,37.596,19,37,19h-8v-5C29,12.343,30.343,11,32,11z"/>
    </svg>

    <svg id="instagram" xmlns="http://www.w3.org/2000/svg" viewBox="0 0 122.88 122.88">
        <title>instagram-logo-black-and-white</title>
        <path d="M61.45,0C44.76,0,42.66.07,36.11.37A45.08,45.08,0,0,0,21.2,3.23a29.86,29.86,0,0,0-10.88,7.08,30.26,30.26,0,0,0-7.1,10.88A44.92,44.92,0,0,0,.37,36.11C.08,42.66,0,44.75,0,61.44S.07,80.21.37,86.77a45.08,45.08,0,0,0,2.86,14.91,30.12,30.12,0,0,0,7.08,10.88,30.13,30.13,0,0,0,10.88,7.1,45.17,45.17,0,0,0,14.92,2.85c6.55.3,8.64.37,25.33.37s18.77-.07,25.33-.37a45.17,45.17,0,0,0,14.92-2.85,31.54,31.54,0,0,0,18-18,45.6,45.6,0,0,0,2.86-14.91c.29-6.55.37-8.64.37-25.33s-.08-18.78-.37-25.33a45.66,45.66,0,0,0-2.86-14.92,30.1,30.1,0,0,0-7.09-10.88,29.77,29.77,0,0,0-10.88-7.08A45.14,45.14,0,0,0,86.76.37C80.2.07,78.12,0,61.43,0ZM55.93,11.07h5.52c16.4,0,18.34.06,24.82.36a34,34,0,0,1,11.41,2.11,19,19,0,0,1,7.06,4.6,19.16,19.16,0,0,1,4.6,7.06,34,34,0,0,1,2.11,11.41c.3,6.47.36,8.42.36,24.82s-.06,18.34-.36,24.82a33.89,33.89,0,0,1-2.11,11.4A20.35,20.35,0,0,1,97.68,109.3a33.64,33.64,0,0,1-11.41,2.12c-6.47.3-8.42.36-24.82.36s-18.35-.06-24.83-.36a34,34,0,0,1-11.41-2.12,19,19,0,0,1-7.07-4.59,19,19,0,0,1-4.59-7.06,34,34,0,0,1-2.12-11.41c-.29-6.48-.35-8.42-.35-24.83s.06-18.34.35-24.82a33.7,33.7,0,0,1,2.12-11.41,19,19,0,0,1,4.59-7.06,19.12,19.12,0,0,1,7.07-4.6A34.22,34.22,0,0,1,36.62,11.4c5.67-.25,7.86-.33,19.31-.34Zm38.31,10.2a7.38,7.38,0,1,0,7.38,7.37,7.37,7.37,0,0,0-7.38-7.37ZM61.45,29.89A31.55,31.55,0,1,0,93,61.44,31.56,31.56,0,0,0,61.45,29.89Zm0,11.07A20.48,20.48,0,1,1,41,61.44,20.48,20.48,0,0,1,61.45,41Z"/>
    </svg>

    <svg id="at" xmlns="http://www.w3.org/2000/svg" viewBox="0 0 111.93 122.88">
        <path d="M46.4,63.92a35.1,35.1,0,0,0,.34,9.16,10,10,0,0,0,2.62,5.48,6.61,6.61,0,0,0,4.78,1.81,7.44,7.44,0,0,0,3.14-.88A10.57,10.57,0,0,0,61,75.81a19.82,19.82,0,0,0,2.3-5.07l2.5-29.08a16.5,16.5,0,0,0-3.38-.35A13,13,0,0,0,53.94,44a16.89,16.89,0,0,0-5,7.67,56.76,56.76,0,0,0-2.55,12.3ZM65.57,85.85a21.54,21.54,0,0,1-3.47,3.59A20.88,20.88,0,0,1,48.52,94a17.75,17.75,0,0,1-11.17-3.7,21.8,21.8,0,0,1-7.08-10.49,38.29,38.29,0,0,1-1.45-15.89,54.16,54.16,0,0,1,5.83-19.27A34.64,34.64,0,0,1,45.84,32,26.88,26.88,0,0,1,61,27.5q8,0,12.5,2.24a90.13,90.13,0,0,1,8.71,5L78.87,74a10.33,10.33,0,0,0,0,3.75,5,5,0,0,0,1.27,2.37,4.78,4.78,0,0,0,2.07,1.26,8.26,8.26,0,0,0,9-2.91,24.65,24.65,0,0,0,4.58-8.94,47.2,47.2,0,0,0,2-12.72q.64-13.14-3.32-23.2a32.2,32.2,0,0,0-12.73-15.7Q73,12.22,59.17,12.23q-13.31,0-22.83,6.77A45,45,0,0,0,21.45,37.25a69,69,0,0,0-6,25.68,66.26,66.26,0,0,0,1.89,20.53,35.45,35.45,0,0,0,7.5,14.37,31,31,0,0,0,12.72,8.46A50.83,50.83,0,0,0,55,109.07a58.88,58.88,0,0,0,11.73-1.22A59.39,59.39,0,0,0,76.88,105l2.58,12a34.27,34.27,0,0,1-11.6,4.44,63.74,63.74,0,0,1-13.13,1.45q-17.91,0-30.4-6.63a42.56,42.56,0,0,1-18.75-20Q-.65,82.95.08,62.93A79.48,79.48,0,0,1,5,37.93a62.41,62.41,0,0,1,12.07-20A53.6,53.6,0,0,1,35.5,4.72,58.79,58.79,0,0,1,59.42,0q17.4,0,29.35,7.11a44.29,44.29,0,0,1,17.9,19.72q5.88,12.62,5.19,29.15A63.42,63.42,0,0,1,109.76,70a41.49,41.49,0,0,1-5.44,12.32,27.89,27.89,0,0,1-9.23,8.73,26.68,26.68,0,0,1-13.45,3.25,18.56,18.56,0,0,1-13.76-5.51,16.18,16.18,0,0,1-2.31-3Z"/>
    </svg>

    <svg id="twitter" xmlns="http://www.w3.org/2000/svg" shape-rendering="geometricPrecision" text-rendering="geometricPrecision" image-rendering="optimizeQuality" fill-rule="evenodd" clip-rule="evenodd" viewBox="0 0 640 640">
        <path d="M640.012 121.513c-23.528 10.524-48.875 17.516-75.343 20.634 27.118-16.24 47.858-41.977 57.756-72.615-25.347 14.988-53.516 25.985-83.363 31.866-24-25.5-58.087-41.35-95.848-41.35-72.508 0-131.21 58.736-131.21 131.198 0 10.228 1.134 20.232 3.355 29.882-109.1-5.528-205.821-57.757-270.57-137.222a131.423 131.423 0 0 0-17.764 66c0 45.497 23.102 85.738 58.347 109.207-21.508-.638-41.74-6.638-59.505-16.359v1.642c0 63.627 45.225 116.718 105.32 128.718-11.008 2.988-22.63 4.642-34.606 4.642-8.48 0-16.654-.874-24.78-2.35 16.783 52.11 65.233 90.095 122.612 91.205-44.989 35.245-101.493 56.233-163.09 56.233-10.63 0-20.988-.65-31.334-1.89 58.229 37.359 127.206 58.997 201.31 58.997 241.42 0 373.552-200.069 373.552-373.54 0-5.764-.13-11.35-.366-16.996 25.642-18.343 47.87-41.493 65.469-67.844l.059-.059z"/>
    </svg>
</svg>