<?xml version="1.0" encoding="utf-8"?>
<svg viewBox="0 0 78 77" xmlns="http://www.w3.org/2000/svg" xmlns:xlink="http://www.w3.org/1999/xlink">
    <style>:root>svg{display:none}:root>svg:target{display:block}</style>
    <svg id="header-arrow" width="10" height="6" viewBox="0 0 10 6" fill="none" xmlns="http://www.w3.org/2000/svg">
        <path d="M1 1L5 5L9 1"/>
    </svg>
    <svg id="user" width="24" height="24" viewBox="0 0 24 24" xmlns="http://www.w3.org/2000/svg">
        <path d="M12 3C12.7417 3 13.4667 3.21993 14.0834 3.63199C14.7001 4.04404 15.1807 4.62971 15.4646 5.31494C15.7484 6.00016 15.8226 6.75416 15.6779 7.48159C15.5333 8.20902 15.1761 8.8772 14.6517 9.40165C14.1272 9.9261 13.459 10.2833 12.7316 10.4279C12.0042 10.5726 11.2502 10.4984 10.5649 10.2145C9.87972 9.93072 9.29405 9.45007 8.88199 8.83339C8.46994 8.2167 8.25 7.49168 8.25 6.75C8.25 5.75544 8.64509 4.80161 9.34835 4.09835C10.0516 3.39509 11.0054 3 12 3ZM12 1.5C10.9617 1.5 9.94662 1.80791 9.08326 2.38478C8.2199 2.96166 7.54699 3.7816 7.14963 4.74091C6.75227 5.70022 6.64831 6.75582 6.85088 7.77422C7.05345 8.79262 7.55347 9.72808 8.28769 10.4623C9.02192 11.1965 9.95738 11.6966 10.9758 11.8991C11.9942 12.1017 13.0498 11.9977 14.0091 11.6004C14.9684 11.203 15.7883 10.5301 16.3652 9.66674C16.9421 8.80339 17.25 7.78835 17.25 6.75C17.25 5.35761 16.6969 4.02226 15.7123 3.03769C14.7277 2.05312 13.3924 1.5 12 1.5Z" stroke-width="0.5"/>
        <path d="M19.5 22.5H18V18.75C18 18.2575 17.903 17.7699 17.7145 17.3149C17.5261 16.86 17.2499 16.4466 16.9017 16.0983C16.5534 15.7501 16.14 15.4739 15.6851 15.2855C15.2301 15.097 14.7425 15 14.25 15H9.75C8.75544 15 7.80161 15.3951 7.09835 16.0983C6.39509 16.8016 6 17.7554 6 18.75V22.5H4.5V18.75C4.5 17.3576 5.05312 16.0223 6.03769 15.0377C7.02226 14.0531 8.35761 13.5 9.75 13.5H14.25C15.6424 13.5 16.9777 14.0531 17.9623 15.0377C18.9469 16.0223 19.5 17.3576 19.5 18.75V22.5Z" stroke-width="0.5"/>
    </svg>
    <svg id="search" width="24" height="24" viewBox="0 0 24 24" xmlns="http://www.w3.org/2000/svg">
        <path d="M21.7492 20.6896L16.0851 15.0255C17.4462 13.3915 18.1249 11.2958 17.98 9.17412C17.8352 7.05248 16.878 5.06836 15.3075 3.63451C13.737 2.20065 11.6742 1.42746 9.54821 1.47577C7.42218 1.52408 5.39663 2.39018 3.89292 3.89389C2.3892 5.39761 1.5231 7.42316 1.47479 9.54918C1.42648 11.6752 2.19967 13.738 3.63353 15.3085C5.06738 16.8789 7.05151 17.8362 9.17314 17.981C11.2948 18.1258 13.3906 17.4471 15.0246 16.0861L20.6886 21.7502L21.7492 20.6896ZM2.9992 9.75018C2.9992 8.41515 3.39508 7.11011 4.13678 6.00008C4.87848 4.89005 5.93269 4.02488 7.16609 3.51399C8.39949 3.0031 9.75669 2.86943 11.0661 3.12988C12.3754 3.39033 13.5782 4.0332 14.5222 4.97721C15.4662 5.92121 16.1091 7.12395 16.3695 8.43332C16.63 9.74269 16.4963 11.0999 15.9854 12.3333C15.4745 13.5667 14.6093 14.6209 13.4993 15.3626C12.3893 16.1043 11.0842 16.5002 9.7492 16.5002C7.9596 16.4982 6.24386 15.7864 4.97842 14.521C3.71298 13.2555 3.00119 11.5398 2.9992 9.75018Z" stroke-width="0.5"/>
    </svg>
    <svg id="cart" width="24" height="24" viewBox="0 0 24 24" xmlns="http://www.w3.org/2000/svg">
        <g clip-path="url(#clip0_22_188)">
            <path d="M7.5 22.5C8.32843 22.5 9 21.8284 9 21C9 20.1716 8.32843 19.5 7.5 19.5C6.67157 19.5 6 20.1716 6 21C6 21.8284 6.67157 22.5 7.5 22.5Z" stroke-width="0.5"/>
            <path d="M18 22.5C18.8284 22.5 19.5 21.8284 19.5 21C19.5 20.1716 18.8284 19.5 18 19.5C17.1716 19.5 16.5 20.1716 16.5 21C16.5 21.8284 17.1716 22.5 18 22.5Z" stroke-width="0.5"/>
            <path d="M21 5.25015H4.365L3.75 2.10015C3.71494 1.9282 3.62068 1.77398 3.48364 1.66435C3.3466 1.55472 3.17546 1.49661 3 1.50015H0V3.00015H2.385L5.25 17.4002C5.28506 17.5721 5.37932 17.7263 5.51636 17.836C5.6534 17.9456 5.82454 18.0037 6 18.0002H19.5V16.5002H6.615L6 13.5002H19.5C19.6734 13.5044 19.8429 13.4484 19.9796 13.3418C20.1163 13.2351 20.2119 13.0843 20.25 12.9152L21.75 6.16515C21.7751 6.05387 21.7745 5.93832 21.7483 5.8273C21.722 5.71628 21.6708 5.61271 21.5985 5.52448C21.5261 5.43625 21.4347 5.36568 21.3309 5.31814C21.2272 5.2706 21.114 5.24735 21 5.25015ZM18.9 12.0002H5.715L4.665 6.75015H20.0625L18.9 12.0002Z" stroke-width="0.5"/>
        </g>
        <defs>
            <clipPath id="clip0_22_188">
                <rect width="24" height="24" fill="white"/>
            </clipPath>
        </defs>
    </svg>
    <svg id="youtube" width="18" height="13" viewBox="0 0 18 13" xmlns="http://www.w3.org/2000/svg">
        <path d="M16.924 2.84451C16.7248 2.11027 16.1412 1.53147 15.401 1.33376C14.0488 0.966797 8.63981 0.966797 8.63981 0.966797C8.63981 0.966797 3.23104 0.966797 1.87882 1.31985C1.15288 1.51735 0.554978 2.11037 0.355852 2.84451C0 4.18558 0 6.9668 0 6.9668C0 6.9668 0 9.76203 0.355852 11.0891C0.555189 11.8232 1.13864 12.402 1.87893 12.5997C3.24528 12.9668 8.64002 12.9668 8.64002 12.9668C8.64002 12.9668 14.0488 12.9668 15.401 12.6137C16.1413 12.4161 16.7248 11.8373 16.9242 11.1032C17.2799 9.76203 17.2799 6.98092 17.2799 6.98092C17.2799 6.98092 17.2942 4.18558 16.924 2.84451ZM6.91771 9.53618V4.39742L11.4155 6.9668L6.91771 9.53618Z"/>
    </svg>
    <svg id="facebook" width="6" height="13" viewBox="0 0 6 13" xmlns="http://www.w3.org/2000/svg">
        <path fill-rule="evenodd" clip-rule="evenodd" d="M1.24342 7.01927V12.8269C1.24342 12.8968 1.31447 12.9668 1.38553 12.9668H3.58816C3.65921 12.9668 3.73026 12.8968 3.73026 12.8269V6.91432H5.32895C5.4 6.91432 5.47105 6.84435 5.47105 6.77438L5.61316 4.99012C5.61316 4.88516 5.54211 4.81519 5.47105 4.81519H3.73026V3.5907C3.73026 3.31082 3.97895 3.06592 4.26316 3.06592H5.47105C5.54211 3.06592 5.61316 2.99595 5.61316 2.92598V1.10674C5.68421 1.03677 5.61316 0.966797 5.50658 0.966797H3.44605C2.23816 0.966797 1.24342 1.94639 1.24342 3.13589V4.85018H0.142105C0.0710526 4.85018 0 4.92015 0 4.99012V6.77438C0 6.84435 0.0710526 6.91432 0.142105 6.91432H1.24342V7.01927Z"/>
    </svg>
    <svg id="instagram" width="12" height="13" viewBox="0 0 12 13" xmlns="http://www.w3.org/2000/svg">
        <path d="M9.15084 3.17909C8.7486 3.17909 8.44693 3.48076 8.44693 3.883C8.44693 4.28523 8.7486 4.58691 9.15084 4.58691C9.55307 4.58691 9.85475 4.28523 9.85475 3.883C9.85475 3.48076 9.55307 3.17909 9.15084 3.17909ZM6.03352 4.08412C4.39106 4.08412 3.0838 5.4249 3.0838 7.03384C3.0838 8.64278 4.42458 9.98356 6.03352 9.98356C7.64246 9.98356 8.98324 8.64278 8.98324 7.03384C8.98324 5.4249 7.67598 4.08412 6.03352 4.08412ZM6.03352 8.94445C4.99441 8.94445 4.12291 8.10646 4.12291 7.03384C4.12291 5.99473 4.96089 5.12322 6.03352 5.12322C7.07263 5.12322 7.94414 5.96121 7.94414 7.03384C7.91062 8.10646 7.07263 8.94445 6.03352 8.94445ZM12 4.58691C12 2.57574 10.3911 0.966797 8.37989 0.966797H3.62011C1.60894 0.966797 0 2.57574 0 4.58691V9.34669C0 11.3579 1.60894 12.9668 3.62011 12.9668H8.37989C10.3911 12.9668 12 11.3579 12 9.34669V4.58691ZM10.8603 9.34669C10.8603 10.721 9.75419 11.8271 8.37989 11.8271H3.62011C2.24581 11.8271 1.13966 10.721 1.13966 9.34669V4.58691C1.13966 3.21261 2.24581 2.10646 3.62011 2.10646H8.37989C9.75419 2.10646 10.8603 3.21261 10.8603 4.58691V9.34669Z"/>
    </svg>
    <svg id="play" width="12" height="14" viewBox="0 0 12 14" xmlns="http://www.w3.org/2000/svg">
        <path d="M11.1113 6.99978L0.444662 13.1582L0.444662 0.84138L11.1113 6.99978Z"/>
    </svg>
</svg>