<svg width="374" height="374" viewBox="0 0 374 374" fill="none" xmlns="http://www.w3.org/2000/svg">
    <g clip-path="url(#clip0_137_485)">
        <path fill-rule="evenodd" clip-rule="evenodd" d="M203.132 22.6425L204.94 5.35318L208.485 5.71488L206.677 23.0042C205.519 22.8596 204.289 22.7149 203.132 22.6425ZM220.204 25.1021L223.821 8.17446L227.366 8.89786L223.749 25.8255C222.592 25.6085 221.362 25.3191 220.204 25.1021ZM236.915 29.3702L242.268 12.8766L245.668 13.9617L240.315 30.4553C239.23 30.0936 238.072 29.7319 236.915 29.3702ZM253.119 35.3745L260.136 19.5319L263.392 20.9787L256.447 36.8936C255.362 36.3872 254.277 35.8808 253.119 35.3745ZM283.213 52.3745L293.413 38.3404L296.306 40.4383L286.106 54.4723C285.166 53.7489 284.153 53.0255 283.213 52.3745ZM296.74 63.0808L308.387 50.2042L311.064 52.5915L299.417 65.4681C298.549 64.6723 297.609 63.8766 296.74 63.0808ZM309.111 75.1617C309.906 76.0298 310.702 76.9702 311.498 77.8383L324.375 66.1915L321.987 63.5149L309.111 75.1617ZM320.106 88.4723L334.14 78.2723L336.238 81.1659L322.204 91.3659C321.553 90.4255 320.83 89.4127 320.106 88.4723ZM337.685 118.132L353.528 111.115L354.975 114.37L339.132 121.387C338.698 120.374 338.192 119.217 337.685 118.132ZM344.123 134.191L360.617 128.838L361.702 132.238L345.209 137.591C344.847 136.506 344.485 135.349 344.123 134.191ZM348.753 150.83L365.681 147.213L366.404 150.757L349.477 154.374C349.26 153.217 348.97 152.06 348.753 150.83ZM351.575 167.902L368.864 166.094L369.226 169.638L351.936 171.447C351.864 170.289 351.719 169.06 351.575 167.902ZM351.936 202.408L369.226 204.217L368.864 207.762L351.575 205.953C351.719 204.796 351.864 203.566 351.936 202.408ZM349.477 219.481L366.404 223.098L365.681 226.643L348.753 223.025C348.97 221.868 349.26 220.711 349.477 219.481ZM345.209 236.264L361.702 241.617L360.617 245.017L344.123 239.664C344.485 238.506 344.847 237.421 345.209 236.264ZM339.204 252.468L355.047 259.485L353.6 262.74L337.757 255.723C338.192 254.638 338.698 253.553 339.204 252.468ZM322.204 282.489L336.238 292.689L334.14 295.583L320.106 285.383C320.83 284.443 321.553 283.502 322.204 282.489ZM311.498 296.017L324.375 307.664L321.987 310.34L309.111 298.694C309.906 297.826 310.702 296.957 311.498 296.017ZM299.417 308.387C298.549 309.183 297.609 309.979 296.74 310.774L308.387 323.651L311.064 321.264L299.417 308.387ZM286.106 319.383L296.306 333.417L293.413 335.515L283.213 321.481C284.153 320.83 285.166 320.106 286.106 319.383ZM256.447 337.034L263.464 352.877L260.209 354.323L253.192 338.481C254.277 337.974 255.362 337.54 256.447 337.034ZM240.387 343.4L245.74 359.894L242.34 360.979L236.987 344.485C238.072 344.123 239.23 343.762 240.387 343.4ZM223.749 348.03L227.366 364.957L223.821 365.681L220.204 348.753C221.362 348.536 222.592 348.319 223.749 348.03ZM206.677 350.923L208.485 368.213L204.94 368.574L203.132 351.285C204.289 351.14 205.519 350.996 206.677 350.923ZM172.17 351.285L170.362 368.574L166.817 368.213L168.626 350.923C169.783 350.996 171.013 351.14 172.17 351.285ZM155.098 348.753L151.481 365.681L147.936 364.957L151.553 348.03C152.711 348.319 153.94 348.536 155.098 348.753ZM138.315 344.485L132.962 360.979L129.562 359.894L134.915 343.4C136.072 343.762 137.23 344.123 138.315 344.485ZM122.183 338.481L115.166 354.323L111.911 352.877L118.928 337.034C119.94 337.54 121.026 337.974 122.183 338.481ZM92.0894 321.553L81.8894 335.587L78.9958 333.489L89.1958 319.455C90.1362 320.106 91.0766 320.83 92.0894 321.553ZM78.5617 310.774L66.9149 323.651L64.2383 321.264L75.8851 308.387C76.7532 309.183 77.6213 309.979 78.5617 310.774ZM66.1915 298.694C65.3958 297.826 64.6 296.885 63.8043 296.017L50.9277 307.664L53.3149 310.34L66.1915 298.694ZM55.1958 285.383L41.1617 295.583L39.0638 292.689L53.0979 282.489C53.7489 283.502 54.4723 284.443 55.1958 285.383ZM37.5447 255.723L21.7021 262.74L20.2553 259.485L36.0979 252.468C36.6043 253.553 37.1106 254.638 37.5447 255.723ZM31.1787 239.664L14.6851 245.017L13.6 241.617L30.0936 236.264C30.4553 237.421 30.817 238.506 31.1787 239.664ZM26.5489 223.025L9.62128 226.643L8.89787 223.098L25.8255 219.481C26.0426 220.711 26.3319 221.868 26.5489 223.025ZM23.7277 205.953L6.4383 207.762L6.0766 204.217L23.366 202.408C23.4383 203.566 23.583 204.796 23.7277 205.953ZM23.2936 171.447L6.00426 169.638L6.36596 166.094L23.6553 167.902C23.583 169.06 23.4383 170.289 23.2936 171.447ZM25.8255 154.374L8.89787 150.757L9.62128 147.213L26.5489 150.83C26.3319 152.06 26.0426 153.217 25.8255 154.374ZM30.0936 137.664L13.6 132.311L14.6851 128.911L31.1787 134.264C30.817 135.349 30.4553 136.506 30.0936 137.664ZM36.0979 121.46L20.2553 114.37L21.7021 111.115L37.5447 118.132C37.1106 119.217 36.6043 120.374 36.0979 121.46ZM53.0255 91.3659L38.9915 81.1659L41.0894 78.2723L55.1234 88.4723C54.4723 89.4127 53.7489 90.4255 53.0255 91.3659ZM63.8043 77.8383L50.8553 66.1915L53.2426 63.5149L66.1192 75.1617C65.3958 76.0298 64.6 76.9702 63.8043 77.8383ZM75.8851 65.4681C76.7532 64.6723 77.6936 63.8766 78.5617 63.0808L66.9149 50.2042L64.2383 52.5915L75.8851 65.4681ZM89.1958 54.4723L78.9958 40.4383L81.8894 38.3404L92.0894 52.3745C91.0766 53.0255 90.1362 53.7489 89.1958 54.4723ZM118.855 36.8936L111.838 21.0511L115.094 19.6042L122.111 35.4468C121.026 35.8808 119.94 36.3872 118.855 36.8936ZM134.915 30.5276L129.562 14.034L132.962 12.9489L138.315 29.4425C137.23 29.7319 136.072 30.0936 134.915 30.5276ZM151.553 25.8255L147.936 8.89786L151.481 8.17446L155.098 25.1021C153.94 25.3191 152.711 25.6085 151.553 25.8255ZM168.626 23.0042L166.817 5.71488L170.362 5.35318L172.17 22.6425C171.013 22.7149 169.783 22.8596 168.626 23.0042Z" fill="#E7E7E7"/>
        <path fill-rule="evenodd" clip-rule="evenodd" d="M280.536 25.0298C278.872 24.0894 276.702 24.6681 275.689 26.3319L263.03 48.2511C265.128 49.4085 267.153 50.566 269.106 51.7957L281.766 29.8766C282.779 28.2128 282.2 26.0426 280.536 25.0298ZM190.545 28.8638V3.54468C190.545 1.59149 188.953 0 187 0C185.047 0 183.455 1.59149 183.455 3.54468V28.8638C184.613 28.8638 185.77 28.7915 187 28.7915C188.157 28.8638 189.387 28.8638 190.545 28.8638ZM110.97 48.2511L98.3106 26.3319C97.3702 24.6681 95.2 24.0894 93.4638 25.0298C91.8 25.9702 91.2213 28.1404 92.1617 29.8766L104.894 51.7957C106.847 50.566 108.945 49.4085 110.97 48.2511ZM51.7957 104.894L29.8043 92.234C28.1404 91.2936 25.9702 91.8723 24.9574 93.5362C24.017 95.2 24.5957 97.3702 26.2596 98.383L48.2511 111.043C49.4085 108.945 50.6383 106.919 51.7957 104.894ZM28.9362 183.455H3.54468C1.59149 183.455 0 185.047 0 187C0 188.953 1.59149 190.545 3.54468 190.545H28.9362C28.9362 189.315 28.8638 188.157 28.8638 186.928C28.8638 185.77 28.9362 184.613 28.9362 183.455ZM48.3234 262.957L26.3319 275.689C24.6681 276.63 24.0894 278.8 25.0298 280.536C25.9702 282.2 28.1404 282.779 29.8766 281.838L51.8681 269.106C50.6383 267.081 49.4809 265.055 48.3234 262.957ZM104.894 322.132L92.1617 344.196C91.2213 345.86 91.8 348.03 93.4638 349.043C95.1276 349.983 97.2979 349.404 98.3106 347.74L111.043 325.677C108.945 324.519 106.919 323.289 104.894 322.132ZM183.455 344.991V370.455C183.455 372.408 185.047 374 187 374C188.953 374 190.545 372.408 190.545 370.455V344.991C189.387 344.991 188.23 345.064 187 345.064C185.843 345.064 184.613 344.991 183.455 344.991ZM262.957 325.604L275.689 347.668C276.63 349.332 278.8 349.911 280.536 348.97C282.2 348.03 282.779 345.86 281.838 344.123L269.106 322.132C267.081 323.289 265.055 324.519 262.957 325.604ZM322.132 269.106L344.123 281.838C345.787 282.779 347.957 282.2 348.97 280.536C349.911 278.872 349.332 276.702 347.668 275.689L325.677 262.957C324.519 265.055 323.362 267.081 322.132 269.106ZM345.064 190.545H370.455C372.408 190.545 374 188.953 374 187C374 185.047 372.408 183.455 370.455 183.455H345.064C345.064 184.613 345.136 185.77 345.136 186.928C345.136 188.157 345.064 189.315 345.064 190.545ZM325.677 110.97L347.596 98.3106C349.26 97.3702 349.838 95.2 348.898 93.4638C347.957 91.8 345.787 91.2213 344.051 92.1617L322.204 104.894C323.362 106.919 324.591 108.945 325.677 110.97Z" fill="#E7E7E7"/>
<!--        <path d="M185 45H187L188 187H184L185 45Z" fill="#E7E7E7"/>-->
        <circle cx="186" cy="188" r="4" fill="#E7E7E7"/>
    </g>
    <defs>
        <clipPath id="clip0_137_485">
            <rect width="374" height="374" fill="white"/>
        </clipPath>
    </defs>
</svg>