<svg width="40" height="40" viewBox="0 0 40 40" fill="none" xmlns="http://www.w3.org/2000/svg">
<path d="M0 20C0 8.9543 8.9543 0 20 0C31.0457 0 40 8.9543 40 20C40 31.0457 31.0457 40 20 40C8.9543 40 0 31.0457 0 20Z" fill="white"/>
<path d="M0 20C0 8.9543 8.9543 0 20 0C31.0457 0 40 8.9543 40 20C40 31.0457 31.0457 40 20 40C8.9543 40 0 31.0457 0 20Z" fill="url(#paint0_linear_309_5826)"/>
<mask id="mask0_309_5826" style="mask-type:alpha" maskUnits="userSpaceOnUse" x="0" y="0" width="40" height="40">
<path fill-rule="evenodd" clip-rule="evenodd" d="M0 20C0 8.9543 8.9543 0 20 0C31.0457 0 40 8.9543 40 20C40 31.0457 31.0457 40 20 40C8.9543 40 0 31.0457 0 20Z" fill="white"/>
</mask>
<g mask="url(#mask0_309_5826)">
<path fill-rule="evenodd" clip-rule="evenodd" d="M20.0007 9.33325C17.1038 9.33325 16.7402 9.34592 15.6024 9.3977C14.4668 9.4497 13.6917 9.62948 13.0135 9.89326C12.3119 10.1657 11.7168 10.5302 11.1239 11.1233C10.5306 11.7162 10.1661 12.3113 9.89279 13.0126C9.62834 13.6911 9.44834 14.4664 9.39723 15.6015C9.34634 16.7393 9.33301 17.1031 9.33301 20C9.33301 22.8969 9.3459 23.2594 9.39745 24.3972C9.44968 25.5328 9.62946 26.3079 9.89301 26.9861C10.1657 27.6877 10.5301 28.2828 11.1232 28.8757C11.7159 29.469 12.311 29.8344 13.0122 30.1068C13.6908 30.3706 14.4662 30.5504 15.6015 30.6024C16.7393 30.6541 17.1026 30.6668 19.9993 30.6668C22.8965 30.6668 23.2589 30.6541 24.3967 30.6024C25.5323 30.5504 26.3083 30.3706 26.987 30.1068C27.6883 29.8344 28.2825 29.469 28.8752 28.8757C29.4686 28.2828 29.833 27.6877 30.1063 26.9863C30.3686 26.3079 30.5486 25.5325 30.6019 24.3974C30.653 23.2596 30.6663 22.8969 30.6663 20C30.6663 17.1031 30.653 16.7396 30.6019 15.6018C30.5486 14.4662 30.3686 13.6911 30.1063 13.0128C29.833 12.3113 29.4686 11.7162 28.8752 11.1233C28.2819 10.5299 27.6885 10.1655 26.9863 9.89326C26.3063 9.62948 25.5307 9.4497 24.3952 9.3977C23.2574 9.34592 22.8952 9.33325 19.9973 9.33325H20.0007ZM19.0438 11.2555C19.2296 11.2552 19.4295 11.2553 19.6452 11.2554L20.0007 11.2555C22.8487 11.2555 23.1863 11.2657 24.3109 11.3168C25.351 11.3644 25.9154 11.5382 26.2914 11.6842C26.7892 11.8775 27.1441 12.1086 27.5172 12.482C27.8905 12.8553 28.1216 13.2108 28.3154 13.7086C28.4614 14.0842 28.6354 14.6486 28.6828 15.6887C28.7339 16.8131 28.745 17.1509 28.745 19.9976C28.745 22.8443 28.7339 23.1821 28.6828 24.3065C28.6352 25.3465 28.4614 25.911 28.3154 26.2865C28.1221 26.7843 27.8905 27.1388 27.5172 27.5119C27.1439 27.8852 26.7894 28.1163 26.2914 28.3097C25.9158 28.4563 25.351 28.6297 24.3109 28.6772C23.1865 28.7283 22.8487 28.7395 20.0007 28.7395C17.1524 28.7395 16.8149 28.7283 15.6904 28.6772C14.6504 28.6292 14.0859 28.4555 13.7097 28.3095C13.2119 28.1161 12.8564 27.885 12.483 27.5117C12.1097 27.1383 11.8786 26.7837 11.6848 26.2857C11.5388 25.9101 11.3648 25.3456 11.3175 24.3056C11.2664 23.1812 11.2561 22.8434 11.2561 19.9949C11.2561 17.1464 11.2664 16.8104 11.3175 15.686C11.365 14.646 11.5388 14.0815 11.6848 13.7055C11.8781 13.2077 12.1097 12.8522 12.483 12.4788C12.8564 12.1055 13.2119 11.8744 13.7097 11.6806C14.0857 11.5339 14.6504 11.3606 15.6904 11.3128C16.6744 11.2684 17.0558 11.255 19.0438 11.2528V11.2555ZM24.4145 14.3062C24.4145 13.5993 24.9878 13.0266 25.6945 13.0266V13.0262C26.4012 13.0262 26.9745 13.5995 26.9745 14.3062C26.9745 15.0129 26.4012 15.5862 25.6945 15.5862C24.9878 15.5862 24.4145 15.0129 24.4145 14.3062ZM20.0005 14.5222C16.9754 14.5223 14.5228 16.975 14.5228 20C14.5228 23.0252 16.9755 25.4768 20.0007 25.4768C23.0258 25.4768 25.4776 23.0252 25.4776 20C25.4776 16.9749 23.0256 14.5222 20.0005 14.5222ZM23.5563 20C23.5563 18.0362 21.9643 16.4444 20.0007 16.4444C18.0369 16.4444 16.4451 18.0362 16.4451 20C16.4451 21.9636 18.0369 23.5556 20.0007 23.5556C21.9643 23.5556 23.5563 21.9636 23.5563 20Z" fill="white"/>
</g>
<defs>
<linearGradient id="paint0_linear_309_5826" x1="20" y1="0" x2="20" y2="40" gradientUnits="userSpaceOnUse">
<stop stop-color="#6847BD"/>
<stop offset="0.505208" stop-color="#D8226B"/>
<stop offset="1" stop-color="#F99739"/>
</linearGradient>
</defs>
</svg>
