<svg width="40" height="40" viewBox="0 0 40 40" fill="none" xmlns="http://www.w3.org/2000/svg">
<path d="M0 20C0 8.9543 8.9543 0 20 0C31.0457 0 40 8.9543 40 20C40 31.0457 31.0457 40 20 40C8.9543 40 0 31.0457 0 20Z" fill="#FF0000"/>
<path d="M30.2205 15.0611C29.9752 14.1186 29.2523 13.3764 28.3343 13.1245C26.6708 12.6667 19.9997 12.6667 19.9997 12.6667C19.9997 12.6667 13.3285 12.6667 11.6649 13.1245C10.7469 13.3764 10.024 14.1186 9.7787 15.0611C9.33301 16.7693 9.33301 20.3334 9.33301 20.3334C9.33301 20.3334 9.33301 23.8974 9.7787 25.6057C10.024 26.5482 10.7469 27.2904 11.6649 27.5424C13.3285 28.0001 19.9997 28.0001 19.9997 28.0001C19.9997 28.0001 26.6708 28.0001 28.3343 27.5424C29.2523 27.2904 29.9752 26.5482 30.2205 25.6057C30.6663 23.8974 30.6663 20.3334 30.6663 20.3334C30.6663 20.3334 30.6663 16.7693 30.2205 15.0611Z" fill="white"/>
<path d="M18 23.9999V17.3333L23.3333 20.6667L18 23.9999Z" fill="#FF0000"/>
</svg>
