<svg width="33" height="32" viewBox="0 0 33 32" fill="none" xmlns="http://www.w3.org/2000/svg">
<path d="M16.5 32C25.3366 32 32.5 24.8366 32.5 16C32.5 7.16344 25.3366 0 16.5 0C7.66344 0 0.5 7.16344 0.5 16C0.5 24.8366 7.66344 32 16.5 32Z" fill="white"/>
<g clip-path="url(#clip0_309_6195)">
<path d="M28.4885 16.2244C28.4885 15.2412 28.4069 14.5236 28.2301 13.7795H16.739V18.2175H23.484C23.3481 19.3204 22.6138 20.9814 20.9819 22.0975L20.959 22.246L24.5923 24.9962L24.844 25.0208C27.1558 22.9346 28.4885 19.8652 28.4885 16.2244Z" fill="#4285F4"/>
<path d="M16.739 27.9176C20.0435 27.9176 22.8177 26.8545 24.844 25.0209L20.9819 22.0976C19.9484 22.8018 18.5612 23.2934 16.739 23.2934C13.5025 23.2934 10.7555 21.2074 9.77629 18.324L9.63276 18.3359L5.85483 21.1927L5.80542 21.3269C7.81804 25.2334 11.9521 27.9176 16.739 27.9176Z" fill="#34A853"/>
<path d="M9.77634 18.324C9.51797 17.58 9.36844 16.7826 9.36844 15.9589C9.36844 15.135 9.51797 14.3378 9.76275 13.5937L9.75591 13.4352L5.93062 10.5325L5.80547 10.5906C4.97597 12.2117 4.5 14.0322 4.5 15.9589C4.5 17.8855 4.97597 19.7059 5.80547 21.327L9.77634 18.324Z" fill="#FBBC05"/>
<path d="M16.739 8.62403C19.0372 8.62403 20.5874 9.59402 21.4714 10.4046L24.9255 7.10928C22.8042 5.1826 20.0435 4 16.739 4C11.9521 4 7.81804 6.68406 5.80542 10.5906L9.7627 13.5936C10.7555 10.7102 13.5025 8.62403 16.739 8.62403Z" fill="#EB4335"/>
</g>
<defs>
<clipPath id="clip0_309_6195">
<rect width="24" height="24" fill="white" transform="translate(4.5 4)"/>
</clipPath>
</defs>
</svg>
