<svg width="165" height="24" viewBox="0 0 165 24" fill="none" xmlns="http://www.w3.org/2000/svg">
<path d="M45.9671 18.1287V7.83791H42.0703V5.83496H52.0465V7.83791H48.1498V18.1287H45.9671Z" fill="black" stroke="black" stroke-width="0.5"/>
<path d="M54.3252 18.1287V5.83496H63.4412V7.76729H56.4886V10.9643H62.6515V12.8966H56.4886V16.1963H63.531V18.1287H54.3252Z" fill="black" stroke="black" stroke-width="0.5"/>
<path d="M66.0928 18.1287V5.83496H68.2498V10.945H74.1174V5.83496H76.2744V18.1287H74.1174V12.948H68.2498V18.1287H66.0928Z" fill="black" stroke="black" stroke-width="0.5"/>
<path d="M79.4395 18.1287V5.83496H81.4424L88.029 14.3346V5.83496H90.1539V18.1287H88.3436L81.5644 9.38505V18.1287H79.4395Z" fill="black" stroke="black" stroke-width="0.5"/>
<path d="M103.796 16.4792C102.576 17.7182 101.042 18.3409 99.1799 18.3409C97.3182 18.3409 95.7839 17.7246 94.577 16.4984C93.37 15.2723 92.7666 13.7636 92.7666 11.9854C92.7666 10.2264 93.3765 8.73059 94.5962 7.49159C95.816 6.25259 97.3503 5.62988 99.212 5.62988C101.074 5.62988 102.608 6.24617 103.815 7.47233C105.022 8.6985 105.625 10.2071 105.625 11.9854C105.625 13.738 105.015 15.2337 103.796 16.4792ZM96.2204 15.0797C97.01 15.9271 98.0115 16.3508 99.212 16.3508C100.419 16.3508 101.408 15.9271 102.191 15.0861C102.967 14.2451 103.359 13.2051 103.359 11.979C103.359 10.7592 102.961 9.72564 102.171 8.87824C101.382 8.03085 100.38 7.60715 99.1799 7.60715C97.973 7.60715 96.9843 8.03085 96.2011 8.87183C95.4244 9.71281 95.0328 10.7528 95.0328 11.979C95.0328 13.1987 95.4308 14.2323 96.2204 15.0797Z" fill="black" stroke="black" stroke-width="0.5"/>
<path d="M110.594 18.1287V7.83791H106.697V5.83496H116.673V7.83791H112.777V18.1287H110.594Z" fill="black" stroke="black" stroke-width="0.5"/>
<path d="M116.314 18.1292L121.726 5.74561H123.729L129.141 18.1292H126.856L125.61 15.1633H119.794L118.529 18.1292H116.314ZM120.584 13.2438H124.814L122.689 8.32632L120.584 13.2438Z" fill="black" stroke="black" stroke-width="0.5"/>
<path d="M131.246 18.1287V5.83496H136.761C138.179 5.83496 139.251 6.20088 139.977 6.92631C140.529 7.4784 140.805 8.16531 140.805 8.99987C140.805 10.2196 140.221 11.1312 139.046 11.7411C140.67 12.2932 141.485 13.3011 141.485 14.7647C141.485 15.8433 141.075 16.6714 140.259 17.2556C139.438 17.8398 138.333 18.1351 136.94 18.1351H131.246V18.1287ZM133.371 11.0157H136.324C137.037 11.0157 137.602 10.8744 138.019 10.5855C138.436 10.2966 138.642 9.87295 138.642 9.31443C138.642 8.82012 138.455 8.44135 138.077 8.16531C137.704 7.88926 137.171 7.75445 136.478 7.75445H133.371V11.0157ZM133.371 16.2156H136.953C137.704 16.2156 138.282 16.0679 138.699 15.7791C139.117 15.4838 139.322 15.0601 139.322 14.4951C139.322 13.3974 138.481 12.8453 136.793 12.8453H133.371V16.2156Z" fill="black" stroke="black" stroke-width="0.5"/>
<path d="M143.926 18.1287V5.83496H146.083V16.1578H152.547V18.1222H143.926V18.1287Z" fill="black" stroke="black" stroke-width="0.5"/>
<path d="M154.794 18.1287V5.83496H163.91V7.76729H156.957V10.9643H163.12V12.8966H156.957V16.1963H164V18.1287H154.794Z" fill="black" stroke="black" stroke-width="0.5"/>
<path d="M2.3623 0L17.4486 0.134816L35.0835 9.64879L31.084 10.1945L18.5463 3.24837L8.24916 3.55009L2.3623 0Z" fill="#132BFE"/>
<path d="M28.1055 17.6153L32.137 16.6844L35.0837 9.64844L31.0842 10.1941L28.1055 17.6153Z" fill="#132BDB"/>
<path d="M18.5464 3.24805L16.0234 10.2519L28.1053 17.6153L31.084 10.1941L18.5464 3.24805Z" fill="#133BFE"/>
<path d="M8.2484 3.54977L5.69336 11.4717L16.0226 10.2519L18.5456 3.24805L8.2484 3.54977Z" fill="#132BDB"/>
<path d="M2.36245 0L0 7.66511L5.69426 11.472L8.2493 3.55009L2.36245 0Z" fill="#133BFE"/>
<path d="M6.31055 19.7086L9.18015 11.0613L16.0235 10.2524L11.35 23.2844L6.31055 19.7086Z" fill="#133BFE"/>
<path d="M15.7673 22.1545L11.3506 23.2844L16.0241 10.2524L19.4972 12.3709L15.7673 22.1545Z" fill="#132BDB"/>
</svg>
