<svg width="26" height="21" viewBox="0 0 26 21" fill="none" xmlns="http://www.w3.org/2000/svg">
<path d="M4.55762 20.9236V19.5961C4.55762 19.0873 4.25666 18.7554 3.74073 18.7554C3.48276 18.7554 3.2033 18.8439 3.00982 19.1315C2.85934 18.8882 2.64437 18.7554 2.32191 18.7554C2.10694 18.7554 1.89197 18.8218 1.71999 19.0652V18.7997H1.26855V20.9236H1.71999V19.751C1.71999 19.3749 1.91347 19.1979 2.21443 19.1979C2.51539 19.1979 2.66587 19.397 2.66587 19.751V20.9236H3.11731V19.751C3.11731 19.3749 3.33228 19.1979 3.61174 19.1979C3.9127 19.1979 4.06318 19.397 4.06318 19.751V20.9236H4.55762ZM11.2432 18.7997H10.5123V18.1581H10.0609V18.7997H9.65244V19.22H10.0609V20.1935C10.0609 20.6802 10.2544 20.9678 10.7703 20.9678C10.9638 20.9678 11.1787 20.9014 11.3292 20.8129L11.2002 20.4147C11.0713 20.5032 10.9208 20.5253 10.8133 20.5253C10.5983 20.5253 10.5123 20.3926 10.5123 20.1714V19.22H11.2432V18.7997ZM15.0697 18.7554C14.8118 18.7554 14.6398 18.8882 14.5323 19.0652V18.7997H14.0809V20.9236H14.5323V19.7289C14.5323 19.3749 14.6828 19.1758 14.9622 19.1758C15.0482 19.1758 15.1557 19.1979 15.2417 19.22L15.3707 18.7776C15.2847 18.7554 15.1557 18.7554 15.0697 18.7554ZM9.28699 18.9767C9.07202 18.8218 8.77106 18.7554 8.4486 18.7554C7.93267 18.7554 7.58871 19.0209 7.58871 19.4413C7.58871 19.7952 7.84668 19.9944 8.29812 20.0607L8.51309 20.0829C8.74956 20.1271 8.87854 20.1935 8.87854 20.3041C8.87854 20.459 8.70657 20.5696 8.40561 20.5696C8.10465 20.5696 7.86818 20.459 7.7177 20.3483L7.50273 20.7023C7.73919 20.8793 8.06165 20.9678 8.38411 20.9678C8.98603 20.9678 9.32998 20.6802 9.32998 20.282C9.32998 19.9059 9.05052 19.7068 8.62058 19.6404L8.40561 19.6183C8.21213 19.5961 8.06165 19.5519 8.06165 19.4191C8.06165 19.2643 8.21213 19.1758 8.4486 19.1758C8.70657 19.1758 8.96453 19.2864 9.09351 19.3528L9.28699 18.9767ZM21.2824 18.7554C21.0244 18.7554 20.8525 18.8882 20.745 19.0652V18.7997H20.2935V20.9236H20.745V19.7289C20.745 19.3749 20.8954 19.1758 21.1749 19.1758C21.2609 19.1758 21.3684 19.1979 21.4544 19.22L21.5834 18.7776C21.4974 18.7554 21.3684 18.7554 21.2824 18.7554ZM15.5212 19.8616C15.5212 20.5032 15.9511 20.9678 16.6175 20.9678C16.9185 20.9678 17.1334 20.9014 17.3484 20.7244L17.1334 20.3483C16.9615 20.4811 16.7895 20.5475 16.596 20.5475C16.2306 20.5475 15.9726 20.282 15.9726 19.8616C15.9726 19.4634 16.2306 19.1979 16.596 19.1758C16.7895 19.1758 16.9615 19.2422 17.1334 19.3749L17.3484 18.9988C17.1334 18.8218 16.9185 18.7554 16.6175 18.7554C15.9511 18.7554 15.5212 19.22 15.5212 19.8616ZM19.6916 19.8616V18.7997H19.2402V19.0652C19.0897 18.8661 18.8747 18.7554 18.5953 18.7554C18.0148 18.7554 17.5634 19.22 17.5634 19.8616C17.5634 20.5032 18.0148 20.9678 18.5953 20.9678C18.8962 20.9678 19.1112 20.8572 19.2402 20.6581V20.9236H19.6916V19.8616ZM18.0363 19.8616C18.0363 19.4855 18.2728 19.1758 18.6597 19.1758C19.0252 19.1758 19.2832 19.4634 19.2832 19.8616C19.2832 20.2377 19.0252 20.5475 18.6597 20.5475C18.2728 20.5253 18.0363 20.2377 18.0363 19.8616ZM12.6405 18.7554C12.0386 18.7554 11.6087 19.1979 11.6087 19.8616C11.6087 20.5253 12.0386 20.9678 12.662 20.9678C12.963 20.9678 13.264 20.8793 13.5004 20.6802L13.2855 20.3483C13.1135 20.4811 12.8985 20.5696 12.6835 20.5696C12.4041 20.5696 12.1246 20.4368 12.0601 20.0607H13.5864V19.8837C13.6079 19.1979 13.221 18.7554 12.6405 18.7554ZM12.6405 19.1537C12.92 19.1537 13.1135 19.3307 13.1565 19.6625H12.0816C12.1246 19.3749 12.3181 19.1537 12.6405 19.1537ZM23.8406 19.8616V17.959H23.3891V19.0652C23.2386 18.8661 23.0237 18.7554 22.7442 18.7554C22.1638 18.7554 21.7123 19.22 21.7123 19.8616C21.7123 20.5032 22.1638 20.9678 22.7442 20.9678C23.0452 20.9678 23.2601 20.8572 23.3891 20.6581V20.9236H23.8406V19.8616ZM22.1853 19.8616C22.1853 19.4855 22.4217 19.1758 22.8087 19.1758C23.1741 19.1758 23.4321 19.4634 23.4321 19.8616C23.4321 20.2377 23.1741 20.5475 22.8087 20.5475C22.4217 20.5253 22.1853 20.2377 22.1853 19.8616ZM7.09428 19.8616V18.7997H6.64284V19.0652C6.49236 18.8661 6.27739 18.7554 5.99793 18.7554C5.4175 18.7554 4.96606 19.22 4.96606 19.8616C4.96606 20.5032 5.4175 20.9678 5.99793 20.9678C6.29889 20.9678 6.51386 20.8572 6.64284 20.6581V20.9236H7.09428V19.8616ZM5.4175 19.8616C5.4175 19.4855 5.65397 19.1758 6.04092 19.1758C6.40637 19.1758 6.66434 19.4634 6.66434 19.8616C6.66434 20.2377 6.40637 20.5475 6.04092 20.5475C5.65397 20.5253 5.4175 20.2377 5.4175 19.8616Z" fill="black"/>
<path d="M15.9073 2.66992H9.13574V15.1919H15.9073V2.66992Z" fill="#FF5F00"/>
<path d="M9.56623 8.93133C9.56623 6.3871 10.7271 4.13049 12.5113 2.67032C11.2 1.60838 9.54473 0.966797 7.73897 0.966797C3.46104 0.966797 0 4.52871 0 8.93133C0 13.3339 3.46104 16.8959 7.73897 16.8959C9.54473 16.8959 11.2 16.2543 12.5113 15.1923C10.7271 13.7543 9.56623 11.4756 9.56623 8.93133Z" fill="#EB001B"/>
<path d="M25.0445 8.93133C25.0445 13.3339 21.5835 16.8959 17.3056 16.8959C15.4998 16.8959 13.8445 16.2543 12.5332 15.1923C14.339 13.7322 15.4783 11.4756 15.4783 8.93133C15.4783 6.3871 14.3175 4.13049 12.5332 2.67032C13.8445 1.60838 15.4998 0.966797 17.3056 0.966797C21.5835 0.966797 25.0445 4.55084 25.0445 8.93133Z" fill="#F79E1B"/>
</svg>
