<svg width="38" height="13" viewBox="0 0 38 13" fill="none" xmlns="http://www.w3.org/2000/svg">
<path d="M19.4719 4.80314C19.4504 6.4747 20.9812 7.40756 22.1344 7.96215C23.3192 8.53124 23.7172 8.89613 23.7127 9.40496C23.7036 10.1838 22.7675 10.5275 21.8913 10.5409C20.3628 10.5643 19.4742 10.1336 18.7675 9.80779L18.217 12.3508C18.9258 12.6733 20.2384 12.9545 21.5996 12.9668C24.7946 12.9668 26.8851 11.4102 26.8964 8.99655C26.9088 5.93351 22.6036 5.7639 22.633 4.39473C22.6432 3.97963 23.0445 3.53663 23.9241 3.42393C24.3594 3.36702 25.5612 3.3235 26.9235 3.94281L27.4583 1.48233C26.7257 1.21898 25.7839 0.966797 24.6115 0.966797C21.6042 0.966797 19.4889 2.54463 19.4719 4.80314ZM32.5967 1.17881C32.0134 1.17881 31.5216 1.51469 31.3022 2.03022L26.7381 12.786H29.9308L30.5662 11.0531H34.4678L34.8364 12.786H37.6504L35.1948 1.17881H32.5967ZM33.0433 4.31439L33.9647 8.67295H31.4413L33.0433 4.31439ZM15.6008 1.17881L13.0841 12.786H16.1265L18.6421 1.17881H15.6008ZM11.1 1.17881L7.93325 9.07913L6.6523 2.36163C6.50194 1.61177 5.90839 1.17881 5.24926 1.17881H0.0723568L0 1.5158C1.06274 1.74344 2.27019 2.11056 3.00168 2.50334C3.44938 2.74325 3.57714 2.95303 3.72411 3.52324L6.15033 12.786H9.36568L14.295 1.17881H11.1Z" fill="black"/>
</svg>
